<?xml version="1.0" encoding="UTF-8" standalone="no"?>
<svg
   width="128"
   height="128"
   viewBox="0 0 6 6"
   version="1.1"
   id="svg4"
   sodipodi:docname="favicon.svg"
   inkscape:export-filename="icon_32.png"
   inkscape:export-xdpi="24"
   inkscape:export-ydpi="24"
   inkscape:version="1.3.2 (091e20ef0f, 2023-11-25)"
   xmlns:inkscape="http://www.inkscape.org/namespaces/inkscape"
   xmlns:sodipodi="http://sodipodi.sourceforge.net/DTD/sodipodi-0.dtd"
   xmlns="http://www.w3.org/2000/svg"
   xmlns:svg="http://www.w3.org/2000/svg">
  <defs
     id="defs8" />
  <sodipodi:namedview
     id="namedview6"
     pagecolor="#ffffff"
     bordercolor="#000000"
     borderopacity="0.25"
     inkscape:showpageshadow="2"
     inkscape:pageopacity="0.0"
     inkscape:pagecheckerboard="0"
     inkscape:deskcolor="#d1d1d1"
     showgrid="false"
     inkscape:zoom="1.8780367"
     inkscape:cx="18.370248"
     inkscape:cy="88.656414"
     inkscape:window-width="1430"
     inkscape:window-height="846"
     inkscape:window-x="0"
     inkscape:window-y="0"
     inkscape:window-maximized="0"
     inkscape:current-layer="svg4" />
  <path
     fill="#000000"
     fill-rule="evenodd"
     d="m 3.0020331,1.301293 c -0.4133368,0 -0.4546706,0.043765 -0.6686003,0.043765 -0.1781818,0 -0.7132854,-0.43568753 -0.9805579,-0.43568753 -0.2675519,0 -0.57950949,0.15693673 -0.57950949,0.60990683 v 0.5226574 c 5.586e-4,0.137145 0.0502711,0.5575014 0.24576779,0.4451649 C 0.78816747,2.7597174 0.76498703,3.077772 0.76805904,3.385513 0.7057794,3.4033528 0.64238196,3.4237017 0.58066116,3.4446085 0.38963253,3.5098357 0.1868741,3.592904 0.09554901,3.6519991 A 0.20947037,0.20907222 0 0 0 0.32288415,4.0032247 C 0.36645269,3.975071 0.52424636,3.9056616 0.71611273,3.8401554 l 0.0636762,-0.020906 c 0.0128411,0.1206995 0.0449652,0.2313631 0.092722,0.3317134 l -0.006695,0.00362 C 0.75130266,4.2147969 0.64517517,4.2842053 0.57758914,4.328248 l -0.0315597,0.020627 a 0.20947037,0.20907222 0 1 0 0.22733508,0.3512259 l 0.0365862,-0.023972 c 0.0684238,-0.0446 0.15611848,-0.1017442 0.25163278,-0.151919 0.022344,-0.01199 0.043848,-0.022578 0.064514,-0.032336 0.4831573,0.4524123 1.3508853,0.5987567 1.875935,0.5987567 0.5250496,0 1.3927774,-0.1463444 1.8759346,-0.5987567 0.020666,0.00975 0.041892,0.020349 0.064513,0.032336 0.095514,0.050174 0.1832088,0.1073196 0.2516327,0.151919 l 0.036587,0.023972 A 0.2094705,0.20907235 0 0 0 5.4580358,4.3488757 L 5.4264773,4.3282481 A 3.6328957,3.6259905 0 0 0 5.1382584,4.1545864 l -0.0067,-0.00362 c 0.047752,-0.1003531 0.079868,-0.211017 0.092716,-0.3317162 l 0.063676,0.020906 c 0.1918685,0.065505 0.3496626,0.1349134 0.39351,0.1630672 A 0.20946124,0.20906311 0 0 0 5.9085169,3.6519987 C 5.817192,3.5929034 5.6144336,3.5098357 5.4236843,3.4446081 A 4.5643,4.5556245 0 0 0 5.236007,3.3852341 C 5.2393583,3.0774931 5.2158987,2.7597173 4.9846535,2.487099 5.1801507,2.5994355 5.2304214,2.1790794 5.2307006,2.0416553 V 1.5192762 c 0,-0.4529701 -0.3119577,-0.60990683 -0.5795094,-0.60990683 -0.2672725,0 -0.8023761,0.43568753 -0.9802787,0.43568753 -0.2142088,0 -0.2555427,-0.043765 -0.6688794,-0.043764 z M 2.813518,3.864128 C 2.869934,3.844895 2.936681,3.836253 3.0020331,3.836253 c 0.065352,0 0.1321007,0.00863 0.1887944,0.027875 0.027928,0.00948 0.061442,0.02453 0.091604,0.048503 a 0.17287535,0.17254676 0 0 1 0.068705,0.1326855 c 0,0.064113 -0.038821,0.1087122 -0.068705,0.1326855 -0.029883,0.023973 -0.063955,0.039025 -0.091604,0.048503 A 0.60045555,0.59931424 0 0 1 3.0020331,4.2543791 0.59766273,0.59652673 0 0 1 2.813518,4.2265039 0.30106561,0.30049336 0 0 1 2.7216343,4.1780013 0.17287535,0.17254676 0 0 1 2.6529311,4.0453159 c 0,-0.064113 0.03882,-0.1087121 0.068705,-0.1326854 0.029882,-0.023973 0.064235,-0.039025 0.091882,-0.048503 z M 3.6080742,3.0000005 c 0.038262,-0.063555 0.1133877,-0.1393754 0.2262181,-0.1393754 0.1128309,0 0.1882358,0.07582 0.2262182,0.1393754 0.039658,0.066622 0.058649,0.1469017 0.058649,0.2266244 0,0.079445 -0.018991,0.1597241 -0.058649,0.2260669 -0.037982,0.063833 -0.1133877,0.1396541 -0.2262182,0.1396541 -0.1128308,0 -0.1879566,-0.07582 -0.2262181,-0.1393753 a 0.44573351,0.44488629 0 0 1 -0.05865,-0.2266244 c 0,-0.079443 0.018991,-0.1597243 0.05865,-0.2260669 z m -1.6645186,0 c 0.038262,-0.063555 0.1133877,-0.1393754 0.2262181,-0.1393754 0.1128308,0 0.1882359,0.07582 0.2262183,0.1393754 0.039658,0.066622 0.058649,0.1469017 0.058649,0.2266244 0,0.079445 -0.018991,0.1597241 -0.058649,0.2260669 -0.037982,0.063833 -0.1133877,0.1396541 -0.2262183,0.1396541 -0.1128296,0 -0.1879565,-0.07582 -0.2262181,-0.1393753 a 0.44573351,0.44488629 0 0 1 -0.05865,-0.2266244 c 0,-0.079443 0.018991,-0.1597243 0.05865,-0.2260669 z"
     clip-rule="evenodd"
     id="path2"
     style="fill:#00a5a5;fill-opacity:1;stroke-width:0.279015" />
</svg>
