<?xml version="1.0" encoding="UTF-8" standalone="no"?>
<svg
   width="128"
   height="128"
   viewBox="0 0 6 6"
   version="1.1"
   id="svg4"
   sodipodi:docname="favicon.svg"
   inkscape:export-filename="favicon.png"
   inkscape:export-xdpi="96"
   inkscape:export-ydpi="96"
   inkscape:version="1.2.2 (b0a8486541, 2022-12-01)"
   xmlns:inkscape="http://www.inkscape.org/namespaces/inkscape"
   xmlns:sodipodi="http://sodipodi.sourceforge.net/DTD/sodipodi-0.dtd"
   xmlns="http://www.w3.org/2000/svg"
   xmlns:svg="http://www.w3.org/2000/svg">
  <defs
     id="defs8" />
  <sodipodi:namedview
     id="namedview6"
     pagecolor="#ffffff"
     bordercolor="#000000"
     borderopacity="0.25"
     inkscape:showpageshadow="2"
     inkscape:pageopacity="0.0"
     inkscape:pagecheckerboard="0"
     inkscape:deskcolor="#d1d1d1"
     showgrid="false"
     inkscape:zoom="1.8780367"
     inkscape:cx="56.44192"
     inkscape:cy="47.922385"
     inkscape:window-width="1366"
     inkscape:window-height="741"
     inkscape:window-x="0"
     inkscape:window-y="0"
     inkscape:window-maximized="1"
     inkscape:current-layer="svg4" />
  <circle
     style="fill:#483737;fill-rule:evenodd;stroke-width:0.046875"
     id="path897"
     cx="3"
     cy="3"
     r="2.901917" />
  <path
     fill="#000000"
     fill-rule="evenodd"
     d="m 3.0016204,1.6398895 c -0.330319,0 -0.363351,0.035041 -0.5343133,0.035041 -0.1423944,0 -0.5700235,-0.3488437 -0.7836149,-0.3488437 -0.2138146,0 -0.4631162,0.1256552 -0.4631162,0.4883365 V 2.2329015 C 1.2210224,2.34271 1.2607503,2.6792784 1.4169819,2.5893335 1.2324051,2.8076119 1.2138804,3.0622699 1.2163354,3.3086701 1.1665645,3.3229539 1.1159003,3.3392468 1.066576,3.3559863 0.91391508,3.408212 0.75188026,3.4747226 0.67889763,3.5220385 A 0.16739867,0.16739867 0 0 0 0.86057297,3.8032557 C 0.89539086,3.7807138 1.021492,3.7251395 1.1748224,3.6726904 l 0.050887,-0.016739 c 0.010262,0.096641 0.035934,0.1852464 0.074099,0.2655943 l -0.00535,0.0029 C 1.2029445,3.972656 1.1181325,4.0282296 1.064121,4.0634934 L 1.0389,4.0800084 a 0.16739867,0.16739867 0 1 0 0.1816753,0.2812175 l 0.029238,-0.019194 c 0.054681,-0.03571 0.1247624,-0.081464 0.2010929,-0.1216376 0.017856,-0.0096 0.035041,-0.018078 0.051556,-0.025891 0.3861161,0.3622348 1.0795628,0.4794089 1.4991573,0.4794089 0.4195944,0 1.113041,-0.1171741 1.4991571,-0.4794089 0.016515,0.00781 0.033478,0.016293 0.051556,0.025891 0.07633,0.040173 0.1464117,0.085928 0.2010928,0.1216376 l 0.029238,0.019194 A 0.16739867,0.16739867 0 0 0 4.96434,4.0800095 L 4.93912,4.0634935 A 2.9032361,2.9032361 0 0 0 4.7087892,3.9244471 l -0.00535,-0.0029 c 0.038158,-0.080347 0.063824,-0.1689531 0.074091,-0.2655938 l 0.050887,0.016739 C 4.9817492,3.7251405 5.1078507,3.780714 5.1428913,3.803256 A 0.16739138,0.16739138 0 0 0 5.324343,3.5220382 C 5.2513604,3.4747222 5.0893256,3.408212 4.9368879,3.355986 A 3.6475698,3.6475698 0 0 0 4.7869052,3.3084468 C 4.7895834,3.0620466 4.7708356,2.8076118 4.5860356,2.5893334 4.7422675,2.6792783 4.7824415,2.3427101 4.7826646,2.2326782 V 1.8144229 c 0,-0.3626813 -0.2493016,-0.4883365 -0.4631161,-0.4883365 -0.2135914,0 -0.6412205,0.3488437 -0.7833917,0.3488437 -0.1711855,0 -0.2042175,-0.035041 -0.5345364,-0.035041 z M 2.8509681,3.6918846 c 0.045085,-0.0154 0.098426,-0.022319 0.1506523,-0.022319 0.052226,0 0.1055685,0.00691 0.1508754,0.022319 0.022319,0.00759 0.049101,0.019641 0.073205,0.038835 a 0.13815369,0.13815369 0 0 1 0.054905,0.1062378 c 0,0.051334 -0.031023,0.087043 -0.054905,0.1062378 -0.023881,0.019194 -0.051109,0.031246 -0.073205,0.038835 A 0.47985529,0.47985529 0 0 1 3.0016204,4.0043485 0.4776234,0.4776234 0 0 1 2.8509681,3.9820296 0.2405972,0.2405972 0 0 1 2.7775391,3.9431948 0.13815369,0.13815369 0 0 1 2.7226348,3.8369571 c 0,-0.051334 0.031023,-0.087043 0.054905,-0.1062378 0.02388,-0.019194 0.051334,-0.031246 0.073428,-0.038835 z M 3.4859394,3.0000003 c 0.030577,-0.050887 0.090614,-0.1115943 0.1807827,-0.1115943 0.090169,0 0.150429,0.060707 0.1807827,0.1115943 0.031693,0.053342 0.04687,0.1176203 0.04687,0.1814522 0,0.063609 -0.015177,0.127887 -0.04687,0.1810059 -0.030354,0.051109 -0.090614,0.1118174 -0.1807827,0.1118174 -0.090169,0 -0.1502059,-0.060707 -0.1807827,-0.1115942 a 0.35620886,0.35620886 0 0 1 -0.04687,-0.1814523 c 0,-0.063608 0.015177,-0.127887 0.04687,-0.1810058 z m -1.3302035,0 c 0.030577,-0.050887 0.090614,-0.1115943 0.1807827,-0.1115943 0.090169,0 0.1504291,0.060707 0.1807828,0.1115943 0.031693,0.053342 0.04687,0.1176203 0.04687,0.1814522 0,0.063609 -0.015177,0.127887 -0.04687,0.1810059 -0.030354,0.051109 -0.090614,0.1118174 -0.1807828,0.1118174 -0.090168,0 -0.1502058,-0.060707 -0.1807827,-0.1115942 a 0.35620886,0.35620886 0 0 1 -0.04687,-0.1814523 c 0,-0.063608 0.015177,-0.127887 0.04687,-0.1810058 z"
     clip-rule="evenodd"
     id="path2"
     style="stroke-width:0.223188;fill:#ffffff" />
</svg>
